<svg data-v-423bf9ae="" xmlns="http://www.w3.org/2000/svg" viewBox="0 0 216.95475285999296 60" class="font"><!----><!----><!----><g data-v-423bf9ae="" id="14015c04-2e41-4f77-b469-64a5f15ba6ba" fill="black" transform="matrix(8.230453491210938,0,0,8.230453491210938,-4.8559770584106445,-53.00412368774414)"><path d="M3.80 6.44C2.02 6.44 0.59 7.81 0.59 10.12C0.59 12.41 2.02 13.73 3.68 13.73C4.70 13.73 5.48 13.10 5.89 12.36L5.89 13.52L7.63 13.52L7.63 6.62L5.89 6.62L5.89 7.40C5.37 6.82 4.55 6.44 3.80 6.44ZM4.16 8.13C4.83 8.13 5.40 8.48 5.89 9.00L5.89 9.98C5.91 11.22 5.03 11.99 4.12 11.99C3.08 11.99 2.39 11.16 2.39 10.12C2.39 9.08 3.08 8.13 4.16 8.13ZM17.86 6.44C16.90 6.44 16.17 7.04 15.63 7.78C15.20 6.89 14.37 6.44 13.40 6.44C12.47 6.44 11.92 6.96 11.50 7.48L11.50 6.62L9.76 6.62L9.76 13.52L11.50 13.52L11.50 9.02C11.87 8.53 12.32 8.13 12.89 8.13C13.67 8.13 14.19 8.59 14.19 9.52L14.21 13.52L15.94 13.52L15.94 9.08C16.32 8.56 16.73 8.13 17.34 8.13C18.12 8.13 18.65 8.59 18.65 9.52L18.66 13.52L20.40 13.52L20.40 9.28C20.40 7.40 19.26 6.44 17.86 6.44ZM24.61 6.44C23.05 6.44 21.96 7.33 21.96 8.63C21.96 9.50 22.30 10.14 23.35 10.50L24.20 10.80C24.80 11.01 25.12 11.16 25.12 11.51C25.12 11.96 24.73 12.22 24.04 12.22C23.37 12.22 22.44 11.87 21.92 11.51L21.92 13.03C22.38 13.37 23.34 13.73 24.27 13.73C25.74 13.73 26.95 12.78 26.95 11.51C26.95 10.62 26.44 10.01 25.38 9.69L24.60 9.43C23.98 9.24 23.80 9.01 23.80 8.71C23.80 8.30 24.21 7.97 24.87 7.97C25.55 7.97 26.22 8.31 26.65 8.60L26.65 7.07C26.25 6.73 25.47 6.44 24.61 6.44Z"></path></g><!----><!----></svg>